{
  "accessors": [
    {
      "bufferView": 2,
      "componentType": 5126,
      "count": 471,
      "max": [
        3.0573618412017822,
        1.9819672107696533,
        39.987186431884766
      ],
      "min": [
        -2.9769821166992188,
        -1.9819670915603638,
        -16.765670776367188
      ],
      "type": "VEC3"
    },
    {
      "bufferView": 2,
      "byteOffset": 5652,
      "componentType": 5126,
      "count": 471,
      "max": [
        1,
        1,
        1
      ],
      "min": [
        -1,
        -1,
        -1
      ],
      "type": "VEC3"
    },
    {
      "bufferView": 3,
      "componentType": 5126,
      "count": 471,
      "max": [
        1,
        1,
        0.45798340439796448,
        1
      ],
      "min": [
        -1,
        -1,
        -0.63204276561737061,
        1
      ],
      "type": "VEC4"
    },
    {
      "bufferView": 1,
      "componentType": 5126,
      "count": 471,
      "max": [
        0.42298778891563416,
        0.99950003623962402
      ],
      "min": [
        0.00050000147894024849,
        0.006586757954210043
      ],
      "type": "VEC2"
    },
    {
      "bufferView": 0,
      "componentType": 5125,
      "count": 1632,
      "max": [
        470
      ],
      "min": [
        0
      ],
      "type": "SCALAR"
    }
  ],
  "asset": {
    "extras": {
      "author": "kifir (https://sketchfab.com/kifir)",
      "license": "CC-BY-4.0 (http://creativecommons.org/licenses/by/4.0/)",
      "source": "https://sketchfab.com/3d-models/atom-rpg-low-poly-broom-2661b18596534962ac08879972721c00",
      "title": "ATOM RPG Low-poly broom"
    },
    "generator": "Sketchfab-6.42.0",
    "version": "2.0"
  },
  "bufferViews": [
    {
      "buffer": 0,
      "byteLength": 6528,
      "byteOffset": 0,
      "name": "floatBufferViews",
      "target": 34963
    },
    {
      "buffer": 0,
      "byteLength": 3768,
      "byteOffset": 6528,
      "byteStride": 8,
      "name": "floatBufferViews",
      "target": 34962
    },
    {
      "buffer": 0,
      "byteLength": 11304,
      "byteOffset": 10296,
      "byteStride": 12,
      "name": "floatBufferViews",
      "target": 34962
    },
    {
      "buffer": 0,
      "byteLength": 7536,
      "byteOffset": 21600,
      "byteStride": 16,
      "name": "floatBufferViews",
      "target": 34962
    }
  ],
  "buffers": [
    {
      "byteLength": 29136,
      "uri": "scene.bin"
    }
  ],
  "images": [
    {
      "uri": "textures/Metla_baseColor.png"
    },
    {
      "uri": "textures/Metla_metallicRoughness.png"
    },
    {
      "uri": "textures/Metla_normal.png"
    }
  ],
  "materials": [
    {
      "alphaCutoff": 0.77610518292682928,
      "alphaMode": "MASK",
      "doubleSided": true,
      "name": "Metla",
      "normalTexture": {
        "index": 2,
        "scale": 1,
        "texCoord": 0
      },
      "occlusionTexture": {
        "index": 1,
        "strength": 1,
        "texCoord": 0
      },
      "pbrMetallicRoughness": {
        "baseColorFactor": [
          1,
          1,
          1,
          1
        ],
        "baseColorTexture": {
          "index": 0,
          "texCoord": 0
        },
        "metallicFactor": 1,
        "metallicRoughnessTexture": {
          "index": 1,
          "texCoord": 0
        },
        "roughnessFactor": 1
      }
    }
  ],
  "meshes": [
    {
      "name": "Metla_Metla_0",
      "primitives": [
        {
          "attributes": {
            "NORMAL": 1,
            "POSITION": 0,
            "TANGENT": 2,
            "TEXCOORD_0": 3
          },
          "indices": 4,
          "material": 0,
          "mode": 4
        }
      ]
    }
  ],
  "nodes": [
    {
      "children": [
        1
      ],
      "name": "RootNode (gltf orientation matrix)",
      "rotation": [
        -0.70710678118654746,
        -0,
        -0,
        0.70710678118654757
      ]
    },
    {
      "children": [
        2
      ],
      "matrix": [
        -0.44068363308906555,
        -0.24296501278877258,
        0.86415618658065796,
        0,
        0.04063694179058075,
        -0.9670865535736084,
        -0.25118163228034973,
        0,
        0.89674222469329834,
        -0.075574964284896851,
        0.43605256080627441,
        0,
        -54.165996551513672,
        2.915987491607666,
        33.551399230957031,
        1
      ],
      "name": "RootNode (model correction matrix)"
    },
    {
      "children": [
        3
      ],
      "matrix": [
        1,
        0,
        0,
        0,
        0,
        0,
        1,
        0,
        0,
        -1,
        0,
        0,
        0,
        0,
        0,
        1
      ],
      "name": "b29d7aa3b0204ab4afa2ff3afd598c23.fbx"
    },
    {
      "children": [
        4
      ],
      "name": "RootNode"
    },
    {
      "children": [
        5
      ],
      "matrix": [
        1,
        0,
        0,
        0,
        0,
        2.2204460492503131e-16,
        -1,
        0,
        0,
        1,
        2.2204460492503131e-16,
        0,
        -13.84392261505127,
        27.188285827636719,
        -2.384105920791626,
        1
      ],
      "name": "Metla"
    },
    {
      "mesh": 0,
      "name": "Metla_Metla_0"
    }
  ],
  "samplers": [
    {
      "magFilter": 9729,
      "minFilter": 9987,
      "wrapS": 10497,
      "wrapT": 10497
    }
  ],
  "scene": 0,
  "scenes": [
    {
      "name": "OSG_Scene",
      "nodes": [
        0
      ]
    }
  ],
  "textures": [
    {
      "sampler": 0,
      "source": 0
    },
    {
      "sampler": 0,
      "source": 1
    },
    {
      "sampler": 0,
      "source": 2
    }
  ]
}

